<?xml version="1.0" encoding="utf-8"?>
<!-- Generator: Adobe Illustrator 26.5.0, SVG Export Plug-In . SVG Version: 6.00 Build 0)  -->
<svg version="1.1" id="Ebene_1" xmlns="http://www.w3.org/2000/svg" xmlns:xlink="http://www.w3.org/1999/xlink" x="0px" y="0px"
	 viewBox="0 0 5677.4 5670.1" style="enable-background:new 0 0 5677.4 5670.1;" xml:space="preserve">
<style type="text/css">
	.st0{fill:#1D1D1B;}
	.st1{fill:#1D1D1B;stroke:#1D1D1B;stroke-width:17;stroke-miterlimit:10;}
	.st2{fill:none;stroke:#FFFFFF;stroke-width:17;stroke-miterlimit:10;}
</style>
<g id="Ebene_2_00000035491393032826956680000017450027759354962577_">
	<path class="st0" d="M3589.8,724.1l829-609.8l-704,754.5c0,0,78.9,125,65.8,164.4c-18.2,54.5-46,138.1,65.8,302.5
		s210.5,233.5,233.5,302.5s46,88.8,9.9,151.3c0,0,72.1,134.3-134.8,230.2c-134.8,62.5-180.9-59.2-194-59.2
		c-13.2,0-9.9-39.5-39.5-75.6c-29.6-36.2,29.6,62.5,3.3,105.2c-26.3,42.8-70.6,64.8-118.4-82.2c-42.8-131.5-177.6-138.1-177.6-138.1
		s-281.9,38.4-371.6-194c-29.2-75.8-26.3-177.6-26.3-177.6s-365,253.2,36.2,697.2s342,884.7-121.7,1437.4
		c-16.8,20.1-2-517.8-513-911.2c-265.9-204.7-388-381.5-397.9-486.7c-1.9-19.9,47.6,229.4,177.6,381.5
		c213.8,249.9,197.3,296,197.3,296s-78.9-82.2-253.2-157.8s-711.4-356.6-539.3-1187.1L1296.3,1612c0,0,188.8-125,277.6-351.9
		c88.8-226.9,167.7-315.7,167.7-315.7s-62.5,13.2-148,75.6c-85.5,62.5-230.2,85.5-230.2,85.5s263.1-194,384.8-414.3
		s522.9-299.3,654.4-256.5s-62.5-62.5-200.6-65.8s584.5-130.2,943.8,52.6c40.6,20.6,13.2-144.7,486.7-233.5
		c0,0-180.9,148-180.9,259.8c0,0,174.3-95.4,292.7-59.2c0,0-85.5,3.3-249.9,272.9L3589.8,724.1z"/>
</g>
<g id="Ebene_5">
	<g>
		<g>
			<path class="st1" d="M4440.8,2032.5l419.9-512.7c75.8-42.1,135.9-60.6,215.4-8.3c63.8,41.9,77.7,132.1,42.7,220.3l-418.1,518.1
				l-465.2,565.8c0,0-67.1,88-122.6,93.1L3418.7,3735L1982.1,5480.7c0,0-127.6,74.7-374.8,75.1c-247.7,0.4-634.7-84.2-634.7-84.2
				s-357.9-31.1-439.7-467.7s218.1-491.3,424.9-383.4s632.4,367.3,895.2,607.3l1360.2-1649.1l698.6-843c0,0,15.6-80.7,65.3-141.7
				L4440.8,2032.5z"/>
			<line class="st2" x1="841.5" y1="4723.6" x2="1638.7" y2="5180.1"/>
			<line class="st2" x1="793.8" y1="4806.9" x2="1591" y2="5263.4"/>
			<line class="st2" x1="746.1" y1="4890.2" x2="1543.4" y2="5346.6"/>
			<line class="st2" x1="698.4" y1="4973.5" x2="1495.7" y2="5429.9"/>
		</g>
		<path class="st1" d="M1236.2,2030.2l-420-512.6c-75.9-42.1-135.9-60.6-215.4-8.3c-63.8,41.9-77.7,132.1-42.7,220.3l418.1,518.1
			l465.3,565.7c0,0,67.1,88,122.6,93l694.3,826.1l1437,1745.5c0,0,127.6,74.7,374.8,75c247.7,0.3,634.7-84.3,634.7-84.3
			s357.9-31.1,439.7-467.7s-218.2-491.3-425-383.4S4087.3,4985,3824.5,5225L2463.9,3576.1l-698.7-842.9c0,0-15.6-80.7-65.3-141.7
			L1236.2,2030.2z"/>
		<line class="st2" x1="4835.9" y1="4720.8" x2="4038.7" y2="5177.4"/>
		<line class="st2" x1="4883.6" y1="4804.1" x2="4086.4" y2="5260.7"/>
		<line class="st2" x1="4931.3" y1="4887.4" x2="4134.1" y2="5344"/>
		<line class="st2" x1="4979" y1="4970.7" x2="4181.8" y2="5427.3"/>
	</g>
</g>
</svg>
